<?xml version="1.0" encoding="utf-8"?>
<!-- Generator: Adobe Illustrator 16.0.0, SVG Export Plug-In . SVG Version: 6.00 Build 0)  -->
<!DOCTYPE svg PUBLIC "-//W3C//DTD SVG 1.1//EN" "http://www.w3.org/Graphics/SVG/1.1/DTD/svg11.dtd">
<svg version="1.1" id="Layer_1" xmlns="http://www.w3.org/2000/svg" xmlns:xlink="http://www.w3.org/1999/xlink" x="0px" y="0px"
	 width="100px" height="80px" viewBox="0 0 100 80" enable-background="new 0 0 100 80" xml:space="preserve">
<path fill="#AB47BC" d="M10,79.5c-5.238,0-9.5-4.262-9.5-9.5l0.047-59.999C0.547,4.762,4.788,0.5,10,0.5h29.793l10,10h40.208
	c5.237,0,9.499,4.261,9.499,9.5v50c0,5.238-4.262,9.5-9.499,9.5H10z"/>
<path fill="#AB47BC" d="M39.586,1l9.708,9.708L49.586,11H50h40c4.963,0,9,4.038,9,9v50c0,4.963-4.037,9-8.999,9H10
	c-4.962,0-9-4.037-9-8.999l0.047-60c0-4.963,4.016-9,8.953-9L39.586,1 M40,0H10C4.5,0,0.047,4.5,0.047,10L0,70c0,5.494,4.5,10,10,10
	h80.001C95.499,80,100,75.494,100,70V20c0-5.5-4.501-10-9.999-10H50L40,0L40,0z"/>
<path fill="none" d="M39,29h24v24H39V29z"/>
</svg>
