<?xml version="1.0" encoding="utf-8"?>
<!-- Generator: Adobe Illustrator 16.0.0, SVG Export Plug-In . SVG Version: 6.00 Build 0)  -->
<!DOCTYPE svg PUBLIC "-//W3C//DTD SVG 1.1//EN" "http://www.w3.org/Graphics/SVG/1.1/DTD/svg11.dtd">
<svg version="1.1" id="Layer_1" xmlns="http://www.w3.org/2000/svg" xmlns:xlink="http://www.w3.org/1999/xlink" x="0px" y="0px"
	 width="56.17px" height="60.532px" viewBox="0 0 56.17 60.532" enable-background="new 0 0 56.17 60.532" xml:space="preserve">
<g>
	<circle fill="#FFFFFF" cx="23.959" cy="30.684" r="23.959"/>
	<g>
		<path fill="#FFFFFF" d="M25.904,38.517c-2.11,0-4.224-0.805-5.834-2.417c-3.223-3.222-3.223-8.447,0-11.669L42.084,2.417
			c3.222-3.222,8.447-3.222,11.669,0c3.223,3.222,3.223,8.447,0,11.67L31.74,36.1C30.13,37.712,28.018,38.517,25.904,38.517z"/>
	</g>
	<g>
		<path fill="#FFFFFF" d="M47.919,60.533c-2.112,0-4.225-0.807-5.835-2.417L20.07,36.1c-3.223-3.222-3.223-8.447,0-11.669
			c3.223-3.223,8.448-3.222,11.67,0l22.013,22.014c3.223,3.224,3.223,8.448,0,11.671C52.142,59.726,50.03,60.533,47.919,60.533z"/>
	</g>
</g>
</svg>
